<svg xmlns="http://www.w3.org/2000/svg" viewBox="0 0 512 512" style="height: 512px; width: 512px;"><rect fill="#000" fill-opacity="1" height="512" width="512" rx="32" ry="32"></rect><g class="" transform="translate(-3,1)" style=""><path d="M384 64l.387 256H368l-96-128-16 128-96-128-16 128-96-128-16 128v160h448V64h-32v256h-32V64h-32zM64 352h48v32H64v-32zm80 0h48v32h-48v-32zm80 0h48v32h-48v-32zm80 0h48v32h-48v-32zM64 416h48v32H64v-32zm80 0h48v32h-48v-32zm80 0h48v32h-48v-32zm80 0h48v32h-48v-32z" fill="#fff" fill-opacity="1"></path></g><g class="" transform="translate(256,256)" style=""><g><circle cx="128" cy="128" r="128" fill="#000" fill-opacity="1"></circle><circle stroke="#ffffff" stroke-opacity="1" fill="#000" fill-opacity="1" stroke-width="18" cx="128" cy="128" r="101"></circle><path fill="#ffffff" fill-opacity="1" d="M119 64v55H64v18h55v55h18v-55h55v-18h-55V64h-18z"></path></g></g></svg>